<svg width="260" height="260" viewBox="0 0 260 260" fill="none" xmlns="http://www.w3.org/2000/svg">
<g filter="url(#filter0_d_214_223)">
<rect x="40" y="36" width="180" height="180" rx="32" fill="white"/>
<rect x="40.5" y="36.5" width="179" height="179" rx="31.5" stroke="#D9D9D9"/>
</g>
<g clip-path="url(#clip0_214_223)">
<path fill-rule="evenodd" clip-rule="evenodd" d="M93.1672 79.375H166.834C174.084 79.375 180.002 84.8656 180.002 91.6531V160.353C180.002 167.114 174.114 172.628 166.834 172.628H93.1672C85.9172 172.625 80 167.141 80 160.352V91.6203C80 84.8641 85.8828 79.375 93.1672 79.375Z" fill="#5468FF"/>
<path fill-rule="evenodd" clip-rule="evenodd" d="M140.422 100.191V96.9922C140.42 94.7578 138.477 92.9297 136.078 92.9297H125.958C123.561 92.9297 121.619 94.7391 121.614 96.9922V100.273C121.614 100.639 121.977 100.895 122.372 100.809C125.234 100.039 128.2 99.6484 131.18 99.6531C134.049 99.6533 136.907 100.013 139.687 100.725C140.055 100.811 140.417 100.558 140.417 100.189M112.683 104.377L110.937 102.766C110.101 101.997 109.005 101.572 107.869 101.578C106.717 101.578 105.614 102.005 104.8 102.766L102.733 104.688C101.917 105.444 101.458 106.472 101.458 107.547C101.458 108.622 101.917 109.648 102.733 110.406L104.433 111.992C104.708 112.245 105.105 112.186 105.345 111.934C106.348 110.65 107.455 109.439 108.658 108.313C109.87 107.178 111.18 106.125 112.575 105.188C112.878 105.031 112.908 104.62 112.669 104.364M131.137 114.517V128.35C131.137 128.747 131.595 129.03 131.987 128.831L145.175 122.467C145.475 122.311 145.566 121.986 145.417 121.706C142.683 117.234 137.609 114.18 131.745 113.981C131.441 113.981 131.12 114.206 131.12 114.517M131.12 147.839C120.125 147.839 111.191 139.52 111.191 129.281C111.191 119.042 120.156 110.741 131.153 110.741C142.15 110.741 151.083 119.056 151.083 129.294C151.083 139.531 142.183 147.852 131.153 147.852M131.153 102.934C115.536 102.934 102.872 114.731 102.872 129.294C102.872 143.856 115.539 155.63 131.153 155.63C146.767 155.63 159.434 143.833 159.434 129.266C159.434 114.698 146.797 102.933 131.153 102.933" fill="white"/>
</g>
<defs>
<filter id="filter0_d_214_223" x="0" y="0" width="260" height="260" filterUnits="userSpaceOnUse" color-interpolation-filters="sRGB">
<feFlood flood-opacity="0" result="BackgroundImageFix"/>
<feColorMatrix in="SourceAlpha" type="matrix" values="0 0 0 0 0 0 0 0 0 0 0 0 0 0 0 0 0 0 127 0" result="hardAlpha"/>
<feOffset dy="4"/>
<feGaussianBlur stdDeviation="20"/>
<feComposite in2="hardAlpha" operator="out"/>
<feColorMatrix type="matrix" values="0 0 0 0 0.0367917 0 0 0 0 0.0348958 0 0 0 0 0.0484375 0 0 0 0.1 0"/>
<feBlend mode="normal" in2="BackgroundImageFix" result="effect1_dropShadow_214_223"/>
<feBlend mode="normal" in="SourceGraphic" in2="effect1_dropShadow_214_223" result="shape"/>
</filter>
<clipPath id="clip0_214_223">
<rect width="100" height="100" fill="white" transform="translate(80 76)"/>
</clipPath>
</defs>
</svg>
