<svg
								width="260"
								height="260"
								viewBox="0 0 260 260"
								fill="none"
								xmlns="http://www.w3.org/2000/svg"
							>
								<g filter="url(#filter0_d_209_393)">
									<rect
										x="40"
										y="36"
										width="180"
										height="180"
										rx="32"
										fill="white"
									/>
									<rect
										x="40.5"
										y="36.5"
										width="179"
										height="179"
										rx="31.5"
										stroke="#D9D9D9"
									/>
								</g>
								<path
									d="M165.552 104.833V146.44L130.171 167.357L129.851 167.648V183.199L130.171 183.5L180 154.739V96.7614L179.529 96.6462L165.481 104.494L165.552 104.833Z"
									fill="#2F406A"
								/>
								<path
									d="M94.6758 146.781L130.171 167.357V183.5L80 154.625V96.8749L80.5148 96.7972L94.5223 104.935L94.6758 105.401V146.781Z"
									fill="#2379BD"
								/>
								<path
									d="M94.6758 105.401L80 96.875L130.057 68L180 96.7614L165.552 104.833L130.057 84.5974L94.6758 105.401Z"
									fill="#03AFEF"
								/>
								<path
									d="M129.562 142.022L129.177 141.63V126.007L129.562 125.808L129.655 125.423L143.059 117.61L143.47 117.702V133.8L129.562 142.022Z"
									fill="#2F406A"
								/>
								<path
									d="M115.422 134.301V117.586L115.811 117.567L129.446 125.496L129.562 125.808V142.022L115.422 134.301Z"
									fill="#2379BD"
								/>
								<path
									d="M129.33 109.363L115.422 117.586L129.562 125.808L143.47 117.702L129.33 109.363Z"
									fill="#03AFEF"
								/>
								<path
									d="M112.254 152.214L111.87 151.822V136.198L112.254 136L112.348 135.615L125.752 127.802L126.162 127.893V143.991L112.254 152.214Z"
									fill="#2F406A"
								/>
								<path
									d="M98.1145 144.493V127.777L98.5028 127.758L112.138 135.688L112.254 136V152.214L98.1145 144.493Z"
									fill="#2379BD"
								/>
								<path
									d="M112.022 119.555L98.1145 127.777L112.254 136L126.162 127.893L112.022 119.555Z"
									fill="#03AFEF"
								/>
								<path
									d="M148.105 152.6L147.721 152.208V136.584L148.105 136.386L148.199 136.001L161.603 128.188L162.013 128.279V144.377L148.105 152.6Z"
									fill="#2F406A"
								/>
								<path
									d="M133.966 144.879V128.163L134.354 128.144L147.989 136.074L148.105 136.386V152.6L133.966 144.879Z"
									fill="#2379BD"
								/>
								<path
									d="M147.873 119.941L133.966 128.163L148.105 136.386L162.013 128.279L147.873 119.941Z"
									fill="#03AFEF"
								/>
								<path
									d="M130.798 162.791L130.414 162.4V146.776L130.798 146.578L130.891 146.192L144.296 138.379L144.705 138.471V154.569L130.798 162.791Z"
									fill="#2F406A"
								/>
								<path
									d="M116.658 155.071V138.355L117.046 138.336L130.682 146.265L130.798 146.578V162.792L116.658 155.071Z"
									fill="#2379BD"
								/>
								<path
									d="M130.566 130.132L116.658 138.355L130.798 146.578L144.705 138.471L130.566 130.132Z"
									fill="#03AFEF"
								/>
								<path
									d="M129.562 119.864L129.177 119.471V103.848L129.562 103.65L129.655 103.264L143.059 95.4514L143.47 95.5431V111.641L129.562 119.864Z"
									fill="#2F406A"
								/>
								<path
									d="M115.422 112.143V95.4273L115.811 95.4082L129.446 103.337L129.562 103.65V119.864L115.422 112.143Z"
									fill="#2379BD"
								/>
								<path
									d="M129.33 87.2043L115.422 95.4271L129.562 103.65L143.47 95.5431L129.33 87.2043Z"
									fill="#03AFEF"
								/>
								<path
									d="M112.254 130.055L111.87 129.663V114.039L112.254 113.841L112.348 113.456L125.752 105.643L126.162 105.734V121.832L112.254 130.055Z"
									fill="#2F406A"
								/>
								<path
									d="M98.1145 122.334V105.619L98.5028 105.6L112.138 113.529L112.254 113.841V130.055L98.1145 122.334Z"
									fill="#2379BD"
								/>
								<path
									d="M112.022 97.3962L98.1145 105.619L112.254 113.841L126.162 105.735L112.022 97.3962Z"
									fill="#03AFEF"
								/>
								<path
									d="M148.105 130.441L147.721 130.049V114.426L148.105 114.227L148.199 113.842L161.603 106.029L162.013 106.121V122.219L148.105 130.441Z"
									fill="#2F406A"
								/>
								<path
									d="M133.966 122.72V106.005L134.354 105.986L147.989 113.915L148.105 114.227V130.441L133.966 122.72Z"
									fill="#2379BD"
								/>
								<path
									d="M147.873 97.7822L133.966 106.005L148.105 114.227L162.013 106.121L147.873 97.7822Z"
									fill="#03AFEF"
								/>
								<path
									d="M130.798 140.633L130.414 140.241V124.617L130.798 124.419L130.891 124.034L144.296 116.22L144.705 116.312V132.41L130.798 140.633Z"
									fill="#2F406A"
								/>
								<path
									d="M116.658 132.912V116.196L117.046 116.177L130.682 124.107L130.798 124.419V140.633L116.658 132.912Z"
									fill="#2379BD"
								/>
								<path
									d="M130.566 107.973L116.658 116.196L130.798 124.419L144.705 116.312L130.566 107.973Z"
									fill="#03AFEF"
								/>
								<defs>
									<filter
										id="filter0_d_209_393"
										x="0"
										y="0"
										width="260"
										height="260"
										filterUnits="userSpaceOnUse"
										color-interpolation-filters="sRGB"
									>
										<feFlood flood-opacity="0" result="BackgroundImageFix" />
										<feColorMatrix
											in="SourceAlpha"
											type="matrix"
											values="0 0 0 0 0 0 0 0 0 0 0 0 0 0 0 0 0 0 127 0"
											result="hardAlpha"
										/>
										<feOffset dy="4" />
										<feGaussianBlur stdDeviation="20" />
										<feComposite in2="hardAlpha" operator="out" />
										<feColorMatrix
											type="matrix"
											values="0 0 0 0 0.0367917 0 0 0 0 0.0348958 0 0 0 0 0.0484375 0 0 0 0.1 0"
										/>
										<feBlend
											mode="normal"
											in2="BackgroundImageFix"
											result="effect1_dropShadow_209_393"
										/>
										<feBlend
											mode="normal"
											in="SourceGraphic"
											in2="effect1_dropShadow_209_393"
											result="shape"
										/>
									</filter>
								</defs>
							</svg>