<svg
	width="260"
	height="260"
	viewBox="0 0 260 260"
	fill="none"
	xmlns="http://www.w3.org/2000/svg"
>
	<g filter="url(#filter0_d_209_357)">
		<rect
			x="40"
			y="36"
			width="180"
			height="180"
			rx="32"
			fill="white"
		/>
		<rect
			x="40.5"
			y="36.5"
			width="179"
			height="179"
			rx="31.5"
			stroke="#D9D9D9"
		/>
	</g>
	<g clip-path="url(#clip0_209_357)">
		<path
			d="M101.016 98.1273C108.365 100.373 118.598 101.757 129.96 101.757C141.322 101.757 151.581 100.414 158.931 98.1273C165.382 96.1579 169.368 93.7734 169.368 91.4378C169.368 89.1022 165.382 86.7259 158.931 84.7565C151.581 82.5104 141.349 81.1188 129.987 81.1188C118.624 81.1188 108.392 82.5104 101.016 84.7565C87.3579 88.9313 86.9753 93.8304 101.016 98.1273ZM156.181 155.5C157.064 155.491 157.929 155.721 158.667 156.162C159.406 156.603 159.985 157.235 160.329 157.978C160.674 158.721 160.77 159.54 160.605 160.333C160.439 161.125 160.02 161.855 159.4 162.429C158.78 163.003 157.987 163.395 157.123 163.556C156.258 163.717 155.361 163.64 154.545 163.333C153.729 163.027 153.031 162.505 152.54 161.835C152.048 161.165 151.786 160.376 151.786 159.569C151.779 159.037 151.887 158.509 152.105 158.016C152.323 157.522 152.645 157.074 153.054 156.695C153.463 156.317 153.95 156.016 154.487 155.811C155.024 155.606 155.6 155.5 156.181 155.5V155.5ZM156.181 132.714C157.051 132.712 157.902 132.946 158.626 133.386C159.351 133.826 159.916 134.452 160.252 135.186C160.588 135.919 160.679 136.727 160.514 137.508C160.349 138.289 159.934 139.008 159.323 139.573C158.712 140.139 157.931 140.527 157.08 140.687C156.228 140.848 155.344 140.775 154.538 140.476C153.731 140.178 153.04 139.668 152.55 139.011C152.061 138.353 151.795 137.578 151.786 136.783C151.779 136.251 151.887 135.723 152.105 135.229C152.323 134.736 152.645 134.287 153.054 133.909C153.463 133.53 153.95 133.23 154.487 133.024C155.024 132.819 155.6 132.714 156.181 132.714V132.714ZM156.181 109.008C157.053 109.006 157.905 109.241 158.631 109.683C159.356 110.124 159.922 110.753 160.257 111.489C160.592 112.225 160.68 113.035 160.511 113.817C160.342 114.599 159.923 115.318 159.308 115.882C158.692 116.446 157.907 116.83 157.053 116.986C156.198 117.143 155.312 117.063 154.507 116.759C153.702 116.454 153.013 115.938 152.529 115.275C152.045 114.612 151.786 113.833 151.786 113.036C151.791 111.973 152.256 110.954 153.08 110.204C153.903 109.454 155.019 109.032 156.181 109.032V109.008ZM169.35 145.629C166.657 147.24 163.735 148.505 160.666 149.389C152.783 151.83 141.945 153.311 129.987 153.311C118.028 153.311 107.191 151.83 99.2363 149.413C96.1965 148.538 93.2994 147.293 90.6233 145.71V161.042C91.1305 163.223 95.001 165.412 101.007 167.243C108.356 169.49 118.589 170.881 129.951 170.881C141.313 170.881 151.546 169.49 158.895 167.243C163.344 165.884 166.627 164.33 168.229 162.727C169.555 161.4 169.35 160.53 169.35 158.951V145.653V145.629ZM85 91.4622C85 86.6608 90.4543 82.6081 99.2363 79.9144C107.191 77.4974 118.055 76 129.987 76C141.918 76 152.783 77.4974 160.701 79.9144C168.62 82.3314 173.977 85.9447 174.867 90.1683C174.974 90.4452 175.028 90.7371 175.027 91.0309V161.62C175.027 166.503 164.803 170.84 160.728 172.086C152.809 174.527 141.945 176 130.013 176C118.082 176 107.191 174.47 99.2363 172.086C95.0633 170.816 85 166.625 85 161.62V159.993C85.0415 137.141 85.0415 114.298 85 91.4622ZM90.6589 138.37C91.1661 140.551 95.0366 142.732 101.016 144.571C108.365 146.817 118.598 148.209 129.96 148.209C141.322 148.209 151.581 146.801 158.931 144.571C165.382 142.602 169.368 140.217 169.368 137.89V122.981C166.668 124.59 163.74 125.855 160.666 126.741C152.747 129.182 141.883 130.655 129.951 130.655C118.019 130.655 107.191 129.158 99.2363 126.741C96.2088 125.863 93.3239 124.618 90.6589 123.038V138.37ZM90.6589 115.697C91.1661 117.878 95.0366 120.067 101.043 121.898C108.392 124.145 118.624 125.536 129.987 125.536C141.349 125.536 151.581 124.145 158.931 121.898C165.382 119.929 169.368 117.545 169.368 115.217V99.2096C166.666 100.816 163.739 102.081 160.666 102.969C152.783 105.386 141.945 106.924 129.987 106.924C118.028 106.924 107.191 105.386 99.2363 102.969C96.196 102.092 93.299 100.844 90.6233 99.2585V115.697H90.6589Z"
			fill="black"
		/>
		<g filter="url(#filter1_d_209_357)">
			<path
				d="M117.659 85.9091C117.557 85.0455 117.142 84.375 116.415 83.8977C115.688 83.4205 114.795 83.1818 113.739 83.1818C112.966 83.1818 112.29 83.3068 111.71 83.5568C111.136 83.8068 110.688 84.1506 110.364 84.5881C110.045 85.0256 109.886 85.5227 109.886 86.0795C109.886 86.5455 109.997 86.946 110.219 87.2812C110.446 87.6108 110.736 87.8864 111.088 88.108C111.44 88.3239 111.81 88.5028 112.196 88.6449C112.582 88.7812 112.938 88.892 113.261 88.9773L115.034 89.4545C115.489 89.5739 115.994 89.7386 116.551 89.9489C117.114 90.1591 117.651 90.446 118.162 90.8097C118.679 91.1676 119.105 91.6278 119.44 92.1903C119.776 92.7528 119.943 93.4432 119.943 94.2614C119.943 95.2045 119.696 96.0568 119.202 96.8182C118.713 97.5795 117.997 98.1847 117.054 98.6335C116.116 99.0824 114.977 99.3068 113.636 99.3068C112.386 99.3068 111.304 99.1051 110.389 98.7017C109.48 98.2983 108.764 97.7358 108.241 97.0142C107.724 96.2926 107.432 95.4545 107.364 94.5H109.545C109.602 95.1591 109.824 95.7045 110.21 96.1364C110.602 96.5625 111.097 96.8807 111.693 97.0909C112.295 97.2955 112.943 97.3977 113.636 97.3977C114.443 97.3977 115.168 97.267 115.81 97.0057C116.452 96.7386 116.96 96.3693 117.335 95.8977C117.71 95.4205 117.898 94.8636 117.898 94.2273C117.898 93.6477 117.736 93.1761 117.412 92.8125C117.088 92.4489 116.662 92.1534 116.134 91.9261C115.605 91.6989 115.034 91.5 114.42 91.3295L112.273 90.7159C110.909 90.3239 109.83 89.7642 109.034 89.0369C108.239 88.3097 107.841 87.358 107.841 86.1818C107.841 85.2045 108.105 84.3523 108.634 83.625C109.168 82.892 109.884 82.3239 110.781 81.9205C111.685 81.5114 112.693 81.3068 113.807 81.3068C114.932 81.3068 115.932 81.5085 116.807 81.9119C117.682 82.3097 118.375 82.8551 118.886 83.5483C119.403 84.2415 119.676 85.0284 119.705 85.9091H117.659ZM129.759 93.5455H132.077L134.021 96.1023L134.532 96.7841L137.43 100.636H135.112L133.202 98.0795L132.725 97.4318L129.759 93.5455ZM138.146 90.2727C138.146 92.1136 137.813 93.7045 137.148 95.0455C136.484 96.3864 135.572 97.4205 134.413 98.1477C133.254 98.875 131.93 99.2386 130.441 99.2386C128.952 99.2386 127.629 98.875 126.469 98.1477C125.31 97.4205 124.398 96.3864 123.734 95.0455C123.069 93.7045 122.737 92.1136 122.737 90.2727C122.737 88.4318 123.069 86.8409 123.734 85.5C124.398 84.1591 125.31 83.125 126.469 82.3977C127.629 81.6705 128.952 81.3068 130.441 81.3068C131.93 81.3068 133.254 81.6705 134.413 82.3977C135.572 83.125 136.484 84.1591 137.148 85.5C137.813 86.8409 138.146 88.4318 138.146 90.2727ZM136.1 90.2727C136.1 88.7614 135.847 87.4858 135.342 86.446C134.842 85.4062 134.163 84.6193 133.305 84.0852C132.452 83.5511 131.498 83.2841 130.441 83.2841C129.384 83.2841 128.427 83.5511 127.569 84.0852C126.717 84.6193 126.038 85.4062 125.532 86.446C125.032 87.4858 124.782 88.7614 124.782 90.2727C124.782 91.7841 125.032 93.0597 125.532 94.0994C126.038 95.1392 126.717 95.9261 127.569 96.4602C128.427 96.9943 129.384 97.2614 130.441 97.2614C131.498 97.2614 132.452 96.9943 133.305 96.4602C134.163 95.9261 134.842 95.1392 135.342 94.0994C135.847 93.0597 136.1 91.7841 136.1 90.2727ZM141.7 99V81.5455H143.813V97.125H151.927V99H141.7Z"
				fill="#DD4814"
			/>
			<path
				d="M117.659 85.9091L116.666 86.0267L116.771 86.9091H117.659V85.9091ZM116.415 83.8977L115.866 84.7338L115.866 84.7338L116.415 83.8977ZM111.71 83.5568L111.314 82.6386L111.311 82.64L111.71 83.5568ZM110.364 84.5881L109.56 83.9931L109.555 83.9999L110.364 84.5881ZM110.219 87.2812L109.385 87.8327L109.39 87.8409L109.396 87.849L110.219 87.2812ZM111.088 88.108L110.556 88.9545L110.566 88.9606L111.088 88.108ZM112.196 88.6449L111.851 89.5835L111.863 89.5879L112.196 88.6449ZM113.261 88.9773L113.521 88.0116L113.516 88.0102L113.261 88.9773ZM115.034 89.4545L114.774 90.4202L114.78 90.4218L115.034 89.4545ZM116.551 89.9489L116.198 90.8844L116.201 90.8856L116.551 89.9489ZM118.162 90.8097L117.582 91.6247L117.593 91.6319L118.162 90.8097ZM119.44 92.1903L120.299 91.6784L120.299 91.6784L119.44 92.1903ZM119.202 96.8182L118.363 96.2736L118.36 96.2781L119.202 96.8182ZM117.054 98.6335L116.624 97.7306L116.622 97.7316L117.054 98.6335ZM110.389 98.7017L109.984 99.6158L109.986 99.6167L110.389 98.7017ZM108.241 97.0142L107.429 97.5967L107.432 97.6009L108.241 97.0142ZM107.364 94.5V93.5H106.29L106.366 94.5712L107.364 94.5ZM109.545 94.5L110.542 94.4141L110.463 93.5H109.545V94.5ZM110.21 96.1364L109.465 96.8032L109.474 96.8134L110.21 96.1364ZM111.693 97.0909L111.361 98.0341L111.372 98.0378L111.693 97.0909ZM115.81 97.0057L116.187 97.9319L116.194 97.929L115.81 97.0057ZM117.335 95.8977L118.118 96.5201L118.122 96.5155L117.335 95.8977ZM117.412 92.8125L118.159 92.1474L118.159 92.1474L117.412 92.8125ZM116.134 91.9261L115.738 92.8448L115.738 92.8448L116.134 91.9261ZM114.42 91.3295L114.146 92.2911L114.153 92.2931L114.42 91.3295ZM112.273 90.7159L111.996 91.677L111.998 91.6774L112.273 90.7159ZM109.034 89.0369L108.359 89.775L108.359 89.775L109.034 89.0369ZM108.634 83.625L107.825 83.0361L107.825 83.0372L108.634 83.625ZM110.781 81.9205L111.191 82.8326L111.194 82.8314L110.781 81.9205ZM116.807 81.9119L116.388 82.8201L116.393 82.8223L116.807 81.9119ZM118.886 83.5483L118.082 84.142L118.085 84.1462L118.886 83.5483ZM119.705 85.9091V86.9091H120.737L120.704 85.8768L119.705 85.9091ZM118.652 85.7915C118.515 84.6344 117.938 83.701 116.963 83.0617L115.866 84.7338C116.346 85.049 116.599 85.4565 116.666 86.0267L118.652 85.7915ZM116.963 83.0617C116.041 82.4564 114.948 82.1818 113.739 82.1818V84.1818C114.643 84.1818 115.334 84.3845 115.866 84.7338L116.963 83.0617ZM113.739 82.1818C112.859 82.1818 112.043 82.324 111.314 82.6386L112.106 84.475C112.536 84.2896 113.072 84.1818 113.739 84.1818V82.1818ZM111.311 82.64C110.601 82.9494 110.003 83.3948 109.56 83.9931L111.167 85.183C111.372 84.9064 111.672 84.6643 112.11 84.4736L111.311 82.64ZM109.555 83.9999C109.109 84.6136 108.886 85.318 108.886 86.0795H110.886C110.886 85.7274 110.982 85.4375 111.172 85.1762L109.555 83.9999ZM108.886 86.0795C108.886 86.7095 109.038 87.3091 109.385 87.8327L111.053 86.7298C110.956 86.583 110.886 86.3814 110.886 86.0795H108.886ZM109.396 87.849C109.703 88.2946 110.093 88.6635 110.556 88.9544L111.621 87.2615C111.378 87.1092 111.189 86.927 111.042 86.7135L109.396 87.849ZM110.566 88.9606C110.974 89.2108 111.403 89.4186 111.851 89.5835L112.541 87.7063C112.217 87.5871 111.907 87.437 111.611 87.2554L110.566 88.9606ZM111.863 89.5879C112.27 89.7314 112.652 89.8508 113.007 89.9443L113.516 88.0102C113.223 87.9333 112.895 87.8311 112.529 87.7019L111.863 89.5879ZM113.001 89.9429L114.774 90.4202L115.294 88.4889L113.521 88.0117L113.001 89.9429ZM114.78 90.4218C115.194 90.5303 115.666 90.6834 116.198 90.8844L116.904 89.0133C116.323 88.7939 115.784 88.6174 115.288 88.4873L114.78 90.4218ZM116.201 90.8856C116.679 91.064 117.139 91.3091 117.582 91.6246L118.741 89.9947C118.162 89.5829 117.549 89.2542 116.901 89.0121L116.201 90.8856ZM117.593 91.6319C117.987 91.9049 118.316 92.2576 118.581 92.7023L120.299 91.6784C119.894 90.9981 119.371 90.4303 118.731 89.9875L117.593 91.6319ZM118.581 92.7023C118.804 93.0757 118.943 93.5789 118.943 94.2614H120.943C120.943 93.3075 120.747 92.43 120.299 91.6784L118.581 92.7023ZM118.943 94.2614C118.943 95.0192 118.748 95.6809 118.363 96.2736L120.04 97.3627C120.644 96.4327 120.943 95.3899 120.943 94.2614H118.943ZM118.36 96.2781C117.987 96.8594 117.426 97.3492 116.624 97.7306L117.484 99.5365C118.569 99.0201 119.439 98.2997 120.043 97.3583L118.36 96.2781ZM116.622 97.7316C115.853 98.1 114.87 98.3068 113.636 98.3068V100.307C115.085 100.307 116.38 100.065 117.486 99.5355L116.622 97.7316ZM113.636 98.3068C112.492 98.3068 111.553 98.1219 110.793 97.7867L109.986 99.6167C111.055 100.088 112.281 100.307 113.636 100.307V98.3068ZM110.795 97.7877C110.028 97.4473 109.459 96.9902 109.051 96.4276L107.432 97.6009C108.07 98.4814 108.932 99.1493 109.984 99.6158L110.795 97.7877ZM109.054 96.4318C108.653 95.872 108.417 95.2141 108.361 94.4288L106.366 94.5712C106.446 95.695 106.796 96.7133 107.429 97.5967L109.054 96.4318ZM107.364 95.5H109.545V93.5H107.364V95.5ZM108.549 94.5859C108.622 95.4288 108.914 96.1876 109.465 96.8032L110.955 95.4696C110.733 95.2214 110.583 94.8894 110.542 94.4141L108.549 94.5859ZM109.474 96.8134C109.987 97.3708 110.625 97.7746 111.361 98.0341L112.026 96.1478C111.569 95.9868 111.217 95.7542 110.946 95.4593L109.474 96.8134ZM111.372 98.0378C112.086 98.2805 112.844 98.3977 113.636 98.3977V96.3977C113.043 96.3977 112.505 96.3104 112.015 96.144L111.372 98.0378ZM113.636 98.3977C114.552 98.3977 115.407 98.2493 116.187 97.9319L115.433 96.0795C114.928 96.2848 114.335 96.3977 113.636 96.3977V98.3977ZM116.194 97.929C116.968 97.6071 117.622 97.1433 118.118 96.5201L116.553 95.2753C116.298 95.5953 115.936 95.8702 115.426 96.0824L116.194 97.929ZM118.122 96.5155C118.642 95.8531 118.898 95.076 118.898 94.2273H116.898C116.898 94.6512 116.778 94.9878 116.549 95.2799L118.122 96.5155ZM118.898 94.2273C118.898 93.4517 118.676 92.7279 118.159 92.1474L116.665 93.4776C116.796 93.6244 116.898 93.8438 116.898 94.2273H118.898ZM118.159 92.1474C117.722 91.6565 117.167 91.2822 116.529 91.0075L115.738 92.8448C116.157 93.0246 116.455 93.2412 116.665 93.4776L118.159 92.1474ZM116.529 91.0075C115.955 90.7606 115.341 90.5473 114.688 90.366L114.153 92.2931C114.728 92.4527 115.256 92.6371 115.738 92.8448L116.529 91.0075ZM114.695 90.368L112.547 89.7544L111.998 91.6774L114.146 92.2911L114.695 90.368ZM112.549 89.7548C111.289 89.3925 110.36 88.8945 109.709 88.2989L108.359 89.775C109.299 90.6339 110.53 91.2553 111.996 91.677L112.549 89.7548ZM109.709 88.2989C109.141 87.7796 108.841 87.1058 108.841 86.1818H106.841C106.841 87.6101 107.336 88.8398 108.359 89.775L109.709 88.2989ZM108.841 86.1818C108.841 85.3963 109.049 84.7542 109.443 84.2128L107.825 83.0372C107.161 83.9504 106.841 85.0128 106.841 86.1818H108.841ZM109.442 84.2139C109.865 83.6333 110.438 83.171 111.191 82.8326L110.371 81.0083C109.329 81.4767 108.47 82.1507 107.825 83.0361L109.442 84.2139ZM111.194 82.8314C111.952 82.4878 112.818 82.3068 113.807 82.3068V80.3068C112.568 80.3068 111.417 80.5349 110.369 81.0095L111.194 82.8314ZM113.807 82.3068C114.811 82.3068 115.665 82.4865 116.388 82.8201L117.226 81.0038C116.199 80.5305 115.052 80.3068 113.807 80.3068V82.3068ZM116.393 82.8223C117.131 83.1578 117.683 83.6013 118.082 84.1419L119.691 82.9546C119.067 82.109 118.232 81.4615 117.221 81.0016L116.393 82.8223ZM118.085 84.1462C118.477 84.6722 118.683 85.2609 118.705 85.9413L120.704 85.8768C120.669 84.7959 120.33 83.8107 119.688 82.9504L118.085 84.1462ZM119.705 84.9091H117.659V86.9091H119.705V84.9091ZM129.759 93.5455V92.5455H127.738L128.964 94.1521L129.759 93.5455ZM132.077 93.5455L132.874 92.9404L132.573 92.5455H132.077V93.5455ZM134.021 96.1023L134.821 95.5023L134.817 95.4972L134.021 96.1023ZM134.532 96.7841L133.732 97.3841L133.733 97.3852L134.532 96.7841ZM137.43 100.636V101.636H139.433L138.229 100.035L137.43 100.636ZM135.112 100.636L134.31 101.235L134.61 101.636H135.112V100.636ZM133.202 98.0795L132.397 98.6728L132.401 98.6778L133.202 98.0795ZM132.725 97.4318L133.53 96.8386L133.525 96.8318L133.52 96.8251L132.725 97.4318ZM137.148 95.0455L136.252 94.6013L136.252 94.6013L137.148 95.0455ZM134.413 98.1477L134.944 98.9948L134.944 98.9948L134.413 98.1477ZM126.469 98.1477L125.938 98.9948L125.938 98.9948L126.469 98.1477ZM123.734 95.0455L124.63 94.6013L124.63 94.6013L123.734 95.0455ZM134.413 82.3977L134.944 81.5507L134.944 81.5507L134.413 82.3977ZM137.148 85.5L136.252 85.9442L136.252 85.9442L137.148 85.5ZM135.342 86.446L134.44 86.8794L134.442 86.8834L135.342 86.446ZM133.305 84.0852L132.774 84.9326L132.776 84.9342L133.305 84.0852ZM127.569 84.0852L127.04 83.2363L127.038 83.2379L127.569 84.0852ZM125.532 86.446L124.633 86.0087L124.631 86.0127L125.532 86.446ZM125.532 94.0994L124.631 94.5328L124.633 94.5368L125.532 94.0994ZM127.569 96.4602L127.038 97.3076L127.04 97.3092L127.569 96.4602ZM133.305 96.4602L132.776 95.6113L132.774 95.6129L133.305 96.4602ZM135.342 94.0994L134.442 93.6621L134.44 93.6661L135.342 94.0994ZM129.759 94.5455H132.077V92.5455H129.759V94.5455ZM131.281 94.1505L133.224 96.7074L134.817 95.4972L132.874 92.9404L131.281 94.1505ZM133.221 96.7023L133.732 97.3841L135.332 96.1841L134.821 95.5023L133.221 96.7023ZM133.733 97.3852L136.631 101.237L138.229 100.035L135.331 96.183L133.733 97.3852ZM137.43 99.6364H135.112V101.636H137.43V99.6364ZM135.913 100.038L134.004 97.4813L132.401 98.6778L134.31 101.235L135.913 100.038ZM134.007 97.4863L133.53 96.8386L131.92 98.025L132.397 98.6727L134.007 97.4863ZM133.52 96.8251L130.554 92.9388L128.964 94.1521L131.93 98.0385L133.52 96.8251ZM137.146 90.2727C137.146 91.9943 136.835 93.4265 136.252 94.6013L138.044 95.4896C138.792 93.9825 139.146 92.2329 139.146 90.2727H137.146ZM136.252 94.6013C135.662 95.7929 134.869 96.6806 133.881 97.3007L134.944 98.9948C136.274 98.1603 137.306 96.9799 138.044 95.4896L136.252 94.6013ZM133.881 97.3007C132.895 97.9193 131.759 98.2386 130.441 98.2386V100.239C132.101 100.239 133.612 99.8307 134.944 98.9948L133.881 97.3007ZM130.441 98.2386C129.123 98.2386 127.987 97.9193 127.001 97.3007L125.938 98.9948C127.27 99.8307 128.782 100.239 130.441 100.239V98.2386ZM127.001 97.3007C126.013 96.6806 125.22 95.7929 124.63 94.6013L122.838 95.4896C123.577 96.9799 124.608 98.1603 125.938 98.9948L127.001 97.3007ZM124.63 94.6013C124.047 93.4265 123.737 91.9943 123.737 90.2727H121.737C121.737 92.2329 122.091 93.9825 122.838 95.4896L124.63 94.6013ZM123.737 90.2727C123.737 88.5511 124.047 87.1189 124.63 85.9442L122.838 85.0558C122.091 86.5629 121.737 88.3125 121.737 90.2727H123.737ZM124.63 85.9442C125.22 84.7526 126.013 83.8649 127.001 83.2448L125.938 81.5507C124.608 82.3851 123.577 83.5656 122.838 85.0558L124.63 85.9442ZM127.001 83.2448C127.987 82.6262 129.123 82.3068 130.441 82.3068V80.3068C128.782 80.3068 127.27 80.7147 125.938 81.5507L127.001 83.2448ZM130.441 82.3068C131.759 82.3068 132.895 82.6262 133.881 83.2448L134.944 81.5507C133.612 80.7147 132.101 80.3068 130.441 80.3068V82.3068ZM133.881 83.2448C134.869 83.8649 135.662 84.7526 136.252 85.9442L138.044 85.0558C137.306 83.5656 136.274 82.3851 134.944 81.5507L133.881 83.2448ZM136.252 85.9442C136.835 87.1189 137.146 88.5511 137.146 90.2727H139.146C139.146 88.3125 138.792 86.5629 138.044 85.0558L136.252 85.9442ZM137.1 90.2727C137.1 88.6545 136.83 87.2199 136.241 86.0087L134.442 86.8834C134.865 87.7517 135.1 88.8682 135.1 90.2727H137.1ZM136.243 86.0127C135.673 84.8266 134.874 83.8843 133.833 83.2363L132.776 84.9342C133.451 85.3543 134.011 85.9859 134.44 86.8794L136.243 86.0127ZM133.836 83.2379C132.816 82.5989 131.676 82.2841 130.441 82.2841V84.2841C131.32 84.2841 132.089 84.5034 132.774 84.9326L133.836 83.2379ZM130.441 82.2841C129.206 82.2841 128.064 82.5988 127.04 83.2363L128.097 84.9342C128.789 84.5034 129.562 84.2841 130.441 84.2841V82.2841ZM127.038 83.2379C126.004 83.8856 125.208 84.8262 124.633 86.0087L126.431 86.8834C126.868 85.9863 127.429 85.353 128.1 84.9326L127.038 83.2379ZM124.631 86.0127C124.049 87.2228 123.782 88.6559 123.782 90.2727H125.782C125.782 88.8668 126.015 87.7488 126.433 86.8794L124.631 86.0127ZM123.782 90.2727C123.782 91.8895 124.049 93.3227 124.631 94.5328L126.433 93.6661C126.015 92.7967 125.782 91.6787 125.782 90.2727H123.782ZM124.633 94.5368C125.208 95.7193 126.004 96.6598 127.038 97.3076L128.1 95.6129C127.429 95.1924 126.868 94.5591 126.431 93.6621L124.633 94.5368ZM127.04 97.3092C128.064 97.9466 129.206 98.2614 130.441 98.2614V96.2614C129.562 96.2614 128.789 96.042 128.097 95.6113L127.04 97.3092ZM130.441 98.2614C131.676 98.2614 132.816 97.9466 133.836 97.3076L132.774 95.6129C132.089 96.042 131.32 96.2614 130.441 96.2614V98.2614ZM133.833 97.3092C134.874 96.6611 135.673 95.7188 136.243 94.5328L134.44 93.6661C134.011 94.5596 133.451 95.1912 132.776 95.6113L133.833 97.3092ZM136.241 94.5368C136.83 93.3255 137.1 91.8909 137.1 90.2727H135.1C135.1 91.6773 134.865 92.7938 134.442 93.6621L136.241 94.5368ZM141.7 99H140.7V100H141.7V99ZM141.7 81.5455V80.5455H140.7V81.5455H141.7ZM143.813 81.5455H144.813V80.5455H143.813V81.5455ZM143.813 97.125H142.813V98.125H143.813V97.125ZM151.927 97.125H152.927V96.125H151.927V97.125ZM151.927 99V100H152.927V99H151.927ZM142.7 99V81.5455H140.7V99H142.7ZM141.7 82.5455H143.813V80.5455H141.7V82.5455ZM142.813 81.5455V97.125H144.813V81.5455H142.813ZM143.813 98.125H151.927V96.125H143.813V98.125ZM150.927 97.125V99H152.927V97.125H150.927ZM151.927 98H141.7V100H151.927V98Z"
				fill="#DD4814"
			/>
		</g>
	</g>
	<defs>
		<filter
			id="filter0_d_209_357"
			x="0"
			y="0"
			width="260"
			height="260"
			filterUnits="userSpaceOnUse"
			color-interpolation-filters="sRGB"
		>
			<feFlood flood-opacity="0" result="BackgroundImageFix" />
			<feColorMatrix
				in="SourceAlpha"
				type="matrix"
				values="0 0 0 0 0 0 0 0 0 0 0 0 0 0 0 0 0 0 127 0"
				result="hardAlpha"
			/>
			<feOffset dy="4" />
			<feGaussianBlur stdDeviation="20" />
			<feComposite in2="hardAlpha" operator="out" />
			<feColorMatrix
				type="matrix"
				values="0 0 0 0 0.0367917 0 0 0 0 0.0348958 0 0 0 0 0.0484375 0 0 0 0.1 0"
			/>
			<feBlend
				mode="normal"
				in2="BackgroundImageFix"
				result="effect1_dropShadow_209_357"
			/>
			<feBlend
				mode="normal"
				in="SourceGraphic"
				in2="effect1_dropShadow_209_357"
				result="shape"
			/>
		</filter>
		<filter
			id="filter1_d_209_357"
			x="103.364"
			y="81.3069"
			width="52.5632"
			height="27.3296"
			filterUnits="userSpaceOnUse"
			color-interpolation-filters="sRGB"
		>
			<feFlood flood-opacity="0" result="BackgroundImageFix" />
			<feColorMatrix
				in="SourceAlpha"
				type="matrix"
				values="0 0 0 0 0 0 0 0 0 0 0 0 0 0 0 0 0 0 127 0"
				result="hardAlpha"
			/>
			<feOffset dy="4" />
			<feGaussianBlur stdDeviation="2" />
			<feComposite in2="hardAlpha" operator="out" />
			<feColorMatrix
				type="matrix"
				values="0 0 0 0 0 0 0 0 0 0 0 0 0 0 0 0 0 0 0.25 0"
			/>
			<feBlend
				mode="normal"
				in2="BackgroundImageFix"
				result="effect1_dropShadow_209_357"
			/>
			<feBlend
				mode="normal"
				in="SourceGraphic"
				in2="effect1_dropShadow_209_357"
				result="shape"
			/>
		</filter>
		<clipPath id="clip0_209_357">
			<rect
				width="90"
				height="100"
				fill="white"
				transform="translate(85 76)"
			/>
		</clipPath>
	</defs>
</svg>