<svg width="260" height="260" viewBox="0 0 260 260" fill="none" xmlns="http://www.w3.org/2000/svg">
<g filter="url(#filter0_d_214_214)">
<rect x="40" y="36" width="180" height="180" rx="32" fill="white"/>
<rect x="40.5" y="36.5" width="179" height="179" rx="31.5" stroke="#D9D9D9"/>
</g>
<g clip-path="url(#clip0_214_214)">
<path d="M138.457 174.339C135.902 177.556 130.722 175.793 130.66 171.685L129.76 111.603H170.159C177.477 111.603 181.558 120.055 177.008 125.786L138.457 174.339Z" fill="url(#paint0_linear_214_214)"/>
<path d="M138.457 174.339C135.902 177.556 130.722 175.793 130.66 171.685L129.76 111.603H170.159C177.477 111.603 181.558 120.055 177.008 125.786L138.457 174.339Z" fill="url(#paint1_linear_214_214)" fill-opacity="0.2"/>
<path d="M122.026 77.6616C124.581 74.4441 129.761 76.2071 129.823 80.3149L130.217 140.397H90.3236C83.006 140.397 78.9248 131.945 83.4751 126.214L122.026 77.6616Z" fill="#3ECF8E"/>
</g>
<defs>
<filter id="filter0_d_214_214" x="0" y="0" width="260" height="260" filterUnits="userSpaceOnUse" color-interpolation-filters="sRGB">
<feFlood flood-opacity="0" result="BackgroundImageFix"/>
<feColorMatrix in="SourceAlpha" type="matrix" values="0 0 0 0 0 0 0 0 0 0 0 0 0 0 0 0 0 0 127 0" result="hardAlpha"/>
<feOffset dy="4"/>
<feGaussianBlur stdDeviation="20"/>
<feComposite in2="hardAlpha" operator="out"/>
<feColorMatrix type="matrix" values="0 0 0 0 0.0367917 0 0 0 0 0.0348958 0 0 0 0 0.0484375 0 0 0 0.1 0"/>
<feBlend mode="normal" in2="BackgroundImageFix" result="effect1_dropShadow_214_214"/>
<feBlend mode="normal" in="SourceGraphic" in2="effect1_dropShadow_214_214" result="shape"/>
</filter>
<linearGradient id="paint0_linear_214_214" x1="129.76" y1="124.925" x2="165.666" y2="139.983" gradientUnits="userSpaceOnUse">
<stop stop-color="#249361"/>
<stop offset="1" stop-color="#3ECF8E"/>
</linearGradient>
<linearGradient id="paint1_linear_214_214" x1="113.842" y1="103.13" x2="130.217" y2="133.954" gradientUnits="userSpaceOnUse">
<stop/>
<stop offset="1" stop-opacity="0"/>
</linearGradient>
<clipPath id="clip0_214_214">
<rect width="100" height="100" fill="white" transform="translate(80 76)"/>
</clipPath>
</defs>
</svg>
